<svg width="15" height="15" viewBox="0 0 15 15" fill="none" xmlns="http://www.w3.org/2000/svg">
<path d="M7.5 0C4.59222 0 2.22656 2.36567 2.22656 5.27343C2.22656 6.25588 2.4987 7.21465 3.01374 8.04645L7.19982 14.7922C7.28 14.9215 7.42127 15 7.57321 15C7.57438 15 7.57552 15 7.5767 15C7.72995 14.9988 7.87151 14.9178 7.95023 14.7863L12.0296 7.97519C12.5162 7.16097 12.7734 6.22673 12.7734 5.27343C12.7734 2.36567 10.4077 0 7.5 0ZM11.2753 7.52397L7.56656 13.7164L3.76075 7.58337C3.33205 6.89103 3.0996 6.09228 3.0996 5.27343C3.0996 2.85029 5.07685 0.87305 7.5 0.87305C9.92316 0.87305 11.8975 2.85029 11.8975 5.27343C11.8975 6.068 11.6803 6.84632 11.2753 7.52397Z" fill="#666666"/>
<path d="M7.5 2.63672C6.04611 2.63672 4.86328 3.81955 4.86328 5.27344C4.86328 6.71804 6.02686 7.91016 7.5 7.91016C8.99133 7.91016 10.1367 6.70216 10.1367 5.27344C10.1367 3.81955 8.95391 2.63672 7.5 2.63672ZM7.5 7.03711C6.52567 7.03711 5.73632 6.24513 5.73632 5.27344C5.73632 4.30419 6.53074 3.50977 7.5 3.50977C8.46925 3.50977 9.26075 4.30419 9.26075 5.27344C9.26075 6.23095 8.48975 7.03711 7.5 7.03711Z" fill="#666666"/>
</svg>
