<svg width="15" height="15" viewBox="0 0 15 15" fill="none" xmlns="http://www.w3.org/2000/svg">
<g clip-path="url(#clip0)">
<path d="M14.5682 11.2448L12.4002 9.07583C12.1091 8.78617 11.7192 8.62658 11.3026 8.62658C10.869 8.62658 10.4596 8.79725 10.1501 9.107L9.30617 9.95075C8.65042 9.58625 7.77882 9.08492 6.87391 8.17998C5.97005 7.27581 5.46866 6.40676 5.1023 5.74745L5.94702 4.90334C6.57506 4.27401 6.58791 3.26435 5.97576 2.65276L3.80819 0.485128C3.51785 0.193977 3.12797 0.0336323 2.71029 0.0336323C2.28642 0.0336323 1.88542 0.196831 1.57771 0.493878C1.39155 0.643797 0.457347 1.46847 0.10917 3.16922C-0.378317 5.54975 0.741734 7.84018 3.97517 11.0749C7.5872 14.6858 10.6707 14.9665 11.5298 14.9665C11.7087 14.9665 11.8166 14.9554 11.8454 14.9521C13.5299 14.7547 14.1331 14.0065 14.5735 13.4603C15.1441 12.7523 15.1421 11.8208 14.5682 11.2448ZM13.8488 12.8761C13.4348 13.3895 13.0439 13.8743 11.7371 14.0276C11.7364 14.0277 11.6649 14.0357 11.5298 14.0357C10.7612 14.0357 7.99234 13.7747 4.63337 10.4168C1.65155 7.43367 0.604971 5.38798 1.02103 3.35587C1.32472 1.87244 2.13097 1.24192 2.16231 1.21797L2.19011 1.19743L2.21449 1.17298C2.34908 1.03852 2.52513 0.964424 2.71023 0.964424C2.87877 0.964424 3.03464 1.02759 3.14957 1.14288L5.31762 3.31101C5.56707 3.56022 5.5538 3.97957 5.2884 4.24552L4.3331 5.20002L4.3174 5.21647C4.06844 5.49067 4.09773 5.86125 4.23487 6.10258C4.63057 6.81668 5.17261 7.79469 6.21559 8.838C7.2551 9.8775 8.23168 10.4191 8.94383 10.8141C9.01508 10.8541 9.16225 10.9213 9.3465 10.9213C9.56408 10.9213 9.76383 10.8292 9.91167 10.6613L10.8082 9.765C10.9421 9.63108 11.1176 9.55733 11.3024 9.55733C11.4713 9.55733 11.628 9.62067 11.7427 9.73467L13.9092 11.9023C14.1845 12.1784 14.0708 12.6007 13.8488 12.8761Z" fill="#666666"/>
<path d="M9.08723 2.31413C9.8869 2.40616 10.8285 2.89054 11.486 3.54811C12.1497 4.21177 12.6352 5.16291 12.7229 5.97127C12.7488 6.20973 12.9505 6.38647 13.185 6.38647C13.2018 6.38647 13.2188 6.38553 13.2358 6.38373C13.4913 6.35599 13.676 6.1264 13.6482 5.87087C13.5374 4.84905 12.961 3.70684 12.1442 2.88998C11.3351 2.08075 10.2045 1.50583 9.19365 1.38948C8.93848 1.35988 8.70757 1.54331 8.67815 1.7986C8.64873 2.05388 8.83182 2.28472 9.08723 2.31413Z" fill="#666666"/>
<path d="M8.652 4.26371C9.0845 4.31353 9.68308 4.63435 10.0752 5.02646C10.4707 5.42198 10.7921 6.02625 10.8394 6.46341C10.8653 6.70194 11.067 6.87867 11.3016 6.87867C11.3183 6.87867 11.3353 6.87773 11.3523 6.87593C11.6078 6.8482 11.7925 6.61861 11.7648 6.36307C11.6838 5.6167 11.1883 4.82336 10.7333 4.36827C10.2823 3.9172 9.49667 3.42407 8.75842 3.33899C8.50283 3.30927 8.27225 3.49276 8.24283 3.74805C8.21348 4.00339 8.39667 4.23429 8.652 4.26371Z" fill="#666666"/>
</g>
<defs>
<clipPath id="clip0">
<rect width="15" height="15" fill="white"/>
</clipPath>
</defs>
</svg>
