<svg width="15" height="15" viewBox="0 0 15 15" fill="none" xmlns="http://www.w3.org/2000/svg">
<path d="M13.5938 1.87498H1.40626C0.6308 1.87498 0 2.50579 0 3.28125V11.7188C0 12.4943 0.6308 13.125 1.40626 13.125H13.5938C14.3692 13.125 15 12.4943 15 11.7188V3.28125C15 2.50579 14.3692 1.87498 13.5938 1.87498ZM13.5938 2.81248C13.6574 2.81248 13.718 2.8257 13.7734 2.84878L7.5 8.28598L1.22657 2.84878C1.28195 2.82573 1.34254 2.81248 1.40622 2.81248H13.5938ZM13.5938 12.1875H1.40626C1.14762 12.1875 0.9375 11.9774 0.9375 11.7188V3.83925L7.19283 9.26059C7.28119 9.337 7.3906 9.375 7.5 9.375C7.6094 9.375 7.7188 9.337 7.80717 9.26059L14.0625 3.83925V11.7188C14.0625 11.9774 13.8523 12.1875 13.5938 12.1875Z" fill="#666666"/>
</svg>
