<svg width="33" height="33" viewBox="0 0 33 33" fill="none" xmlns="http://www.w3.org/2000/svg">
<path d="M18.0575 12.4608H14.3193V8.72253C14.3193 8.37861 14.0402 8.09949 13.6962 8.09949C13.3523 8.09949 13.0732 8.37861 13.0732 8.72253V12.4608H9.33496C8.99104 12.4608 8.71191 12.7399 8.71191 13.0838C8.71191 13.4277 8.99104 13.7069 9.33496 13.7069H13.0732V17.4451C13.0732 17.789 13.3523 18.0681 13.6962 18.0681C14.0402 18.0681 14.3193 17.789 14.3193 17.4451V13.7069H18.0575C18.4015 13.7069 18.6806 13.4277 18.6806 13.0838C18.6806 12.7399 18.4015 12.4608 18.0575 12.4608Z" fill="#111C26"/>
<path d="M32.2136 31.9452L22.9558 22.3173C25.3171 19.9492 26.78 16.6844 26.78 13.0839C26.78 5.86905 20.911 0 13.6962 0C6.48135 0 0.612305 5.86905 0.612305 13.0839C0.612305 20.2987 6.48135 26.1677 13.6962 26.1677C16.8631 26.1677 19.7696 25.0357 22.035 23.1572L31.3152 32.8087C31.4373 32.9365 31.6005 33 31.7644 33C31.9201 33 32.0753 32.9421 32.1961 32.8262C32.4441 32.5875 32.4516 32.1932 32.2136 31.9452ZM1.85839 13.0839C1.85839 6.55626 7.16857 1.24608 13.6962 1.24608C20.2238 1.24608 25.534 6.55626 25.534 13.0839C25.534 19.6115 20.2238 24.9216 13.6962 24.9216C7.16857 24.9216 1.85839 19.6115 1.85839 13.0839Z" fill="#111C26"/>
</svg>
